# xmcd CD database file
#
# Track frame offsets:
#	182
#	17072
#	77412
#	109332
#	144145
#	174647
#
# Disc length: 3438 seconds
#
# Revision: 3
# Processed by: cddbd v1.5.1PL2 Copyright (c) Steve Scherf et al.
# Submitted via: CDex 1.51
#
DISCID=400d6c06
DTITLE=Riccardo Chailly and Royal Concertgebouw Orchestra - Mosolov/Prokofiev/Varese
DYEAR=1994
DGENRE=Classical
TTITLE0=Mosolov: Zavod - Iron Foundry (3:36)
TTITLE1=Prokofiev: Symphony No. 3, op. 44, I: Moderato (13:19)
TTITLE2=II: Andante (7:04)
TTITLE3=III: Allegro agitato (7:42)
TTITLE4=IV Andante mosso - Allegro moderato (6:34)
TTITLE5=Varese: Arcana (18:30)
EXTD=YEAR: 1994
EXTT0=
EXTT1=
EXTT2=
EXTT3=
EXTT4=
EXTT5=
PLAYORDER=
